<?xml version="1.0" standalone="no"?>
<!DOCTYPE svg PUBLIC "-//W3C//DTD SVG 20010904//EN"
 "http://www.w3.org/TR/2001/REC-SVG-20010904/DTD/svg10.dtd">
<svg version="1.0" xmlns="http://www.w3.org/2000/svg"
 width="666.000000pt" height="666.000000pt" viewBox="0 0 666.000000 666.000000"
 preserveAspectRatio="xMidYMid meet">
<metadata>
Created by potrace 1.14, written by Peter Selinger 2001-2017
</metadata>
<g transform="translate(0.000000,666.000000) scale(0.100000,-0.100000)"
fill="#000000" stroke="none">
<path d="M3379 5122 c-218 -3 -208 3 -212 -124 -2 -42 -5 -80 -8 -83 -6 -5
-28 -11 -79 -21 -14 -2 -36 -7 -50 -11 -14 -3 -31 -7 -39 -9 -12 -2 -46 -11
-71 -19 -83 -25 -134 -30 -124 -13 3 4 0 8 -5 8 -6 0 -11 5 -11 11 0 6 -8 23
-19 37 -10 15 -22 38 -26 52 -7 23 -22 39 -36 40 -3 0 -20 -13 -37 -28 -17
-16 -58 -42 -89 -58 -32 -16 -60 -31 -63 -34 -3 -3 -31 -18 -63 -35 -33 -16
-61 -36 -64 -42 -3 -7 -9 -10 -14 -7 -14 8 -28 -38 -18 -62 4 -12 5 -25 2 -28
-4 -3 -2 -6 4 -6 5 0 11 -21 12 -46 0 -26 3 -50 6 -54 3 -4 -2 -10 -10 -14 -8
-3 -15 -10 -15 -15 0 -12 -48 -61 -59 -61 -5 0 -15 -7 -22 -17 -18 -20 -75
-46 -115 -50 -20 -3 -47 5 -77 21 l-45 26 -29 -29 c-37 -37 -53 -58 -53 -69 0
-8 -12 -26 -56 -80 -12 -15 -38 -58 -58 -95 -28 -53 -35 -76 -30 -100 19 -102
6 -159 -41 -181 -18 -9 -38 -16 -44 -16 -6 0 -11 -4 -11 -9 0 -5 -11 -12 -25
-15 -15 -4 -31 -18 -38 -34 -6 -15 -14 -29 -17 -32 -3 -3 -6 -21 -7 -40 -1
-19 -4 -59 -6 -87 -2 -29 0 -53 5 -53 5 0 7 -4 3 -9 -3 -6 2 -14 12 -19 15 -9
17 -29 19 -170 0 -87 4 -164 8 -170 4 -7 2 -12 -4 -12 -7 0 -8 -6 -2 -16 13
-23 3 -60 -22 -87 -11 -12 -23 -38 -25 -57 -6 -66 -6 -120 1 -120 4 0 5 -6 2
-14 -3 -8 0 -25 7 -38 7 -13 12 -26 11 -30 -1 -5 5 -8 13 -8 53 0 123 -92 130
-168 6 -77 17 -111 36 -117 10 -4 19 -11 19 -16 0 -6 4 -7 10 -4 5 3 10 1 10
-4 0 -6 7 -11 15 -11 8 0 15 -3 16 -7 0 -5 3 -17 5 -28 5 -24 12 -66 13 -80 1
-14 108 -125 121 -125 5 0 10 -4 10 -8 0 -5 34 -28 75 -51 105 -60 197 -168
192 -225 -2 -23 28 -29 47 -10 8 8 18 14 23 14 5 0 17 14 27 30 9 17 21 28 26
25 4 -3 11 1 13 7 3 7 6 4 6 -7 1 -25 57 -95 77 -95 8 0 14 -4 14 -9 0 -5 26
-17 58 -27 64 -20 69 -21 80 -23 5 0 18 -10 30 -21 12 -12 22 -18 22 -14 0 4
8 0 19 -10 11 -10 16 -26 14 -39 -2 -12 3 -31 12 -42 9 -11 14 -15 12 -10 -3
6 34 -9 81 -32 48 -24 95 -43 105 -43 9 0 17 -4 17 -10 0 -5 7 -7 15 -4 8 4
21 2 28 -4 7 -6 54 -9 122 -6 192 8 397 9 401 2 3 -4 18 -2 34 4 22 7 34 7 44
-1 8 -7 17 -8 20 -3 3 5 17 8 31 7 14 -2 25 0 25 4 0 4 8 7 18 8 9 1 31 7 47
14 36 15 33 14 70 24 17 4 36 12 43 18 6 5 12 7 12 4 0 -12 85 39 86 51 1 6 2
23 3 37 1 18 7 25 21 25 11 0 20 5 20 10 0 6 3 9 8 9 4 -1 9 0 12 1 13 4 47
12 63 13 9 1 17 5 17 9 0 4 3 7 8 6 11 -2 63 14 91 28 14 8 32 14 39 14 6 0
12 5 12 11 0 5 5 7 10 4 6 -3 10 -3 10 2 0 9 48 33 68 33 7 0 11 -3 8 -8 -7
-12 41 -30 56 -21 7 5 8 9 3 9 -6 0 -12 13 -13 29 -2 24 6 35 40 63 24 18 50
42 59 53 41 50 59 67 71 69 64 11 177 70 243 128 26 23 48 75 47 117 0 22 37
85 41 72 2 -6 98 49 115 66 6 6 8 14 4 17 -17 10 -14 107 4 134 20 31 40 52
49 52 3 0 17 12 30 27 42 48 41 45 52 108 12 72 10 122 -7 168 -14 35 -18 76
-19 160 0 61 -1 156 -2 209 -1 79 2 100 16 114 12 13 16 31 13 78 -1 34 -6 63
-9 66 -4 3 -9 19 -12 35 -8 48 -18 75 -30 75 -6 0 -7 3 -4 6 4 4 -8 14 -26 24
-41 21 -101 130 -111 203 -1 4 -7 11 -14 16 -8 5 -12 11 -10 13 1 3 -19 41
-47 84 -27 43 -52 83 -54 89 -2 5 -17 29 -32 52 -16 23 -29 45 -29 50 0 4 -7
16 -14 26 -12 16 -17 17 -38 5 -12 -7 -26 -17 -30 -23 -10 -14 -105 -10 -136
6 -14 8 -40 27 -56 42 -98 91 -95 88 -86 112 5 13 5 37 0 53 -8 29 5 71 30 96
8 8 -11 36 -24 36 -6 0 -163 102 -183 120 -7 5 -14 10 -17 10 -11 0 -96 64
-96 72 0 4 -11 8 -25 8 -18 0 -29 -8 -38 -27 -6 -16 -14 -30 -18 -33 -3 -3
-18 -24 -32 -47 -14 -23 -31 -44 -36 -47 -6 -4 -38 3 -73 15 -35 12 -67 22
-73 23 -5 1 -21 6 -35 11 -14 4 -36 9 -50 11 -14 1 -25 3 -25 4 0 1 -12 4 -27
6 -14 2 -44 10 -65 18 -36 13 -38 15 -35 54 1 22 -2 43 -8 47 -5 3 -7 11 -5
18 15 41 12 66 -8 84 -20 16 -39 18 -208 15z"/>
</g>
</svg>
